<?xml version="1.0" encoding="UTF-8" standalone="no"?>
<svg
   role="img"
   fill="#CC6699"
   viewBox="0 0 24 24"
   version="1.1"
   id="svg6"
   sodipodi:docname="sass.svg"
   inkscape:version="1.1.2 (1:1.1+202202050950+0a00cf5339)"
   xmlns:inkscape="http://www.inkscape.org/namespaces/inkscape"
   xmlns:sodipodi="http://sodipodi.sourceforge.net/DTD/sodipodi-0.dtd"
   xmlns="http://www.w3.org/2000/svg"
   xmlns:svg="http://www.w3.org/2000/svg">
  <defs
     id="defs10" />
  <sodipodi:namedview
     id="namedview8"
     pagecolor="#ffffff"
     bordercolor="#666666"
     borderopacity="1.0"
     inkscape:pageshadow="2"
     inkscape:pageopacity="0.0"
     inkscape:pagecheckerboard="0"
     showgrid="false"
     inkscape:zoom="35.166667"
     inkscape:cx="11.985782"
     inkscape:cy="12.014218"
     inkscape:window-width="1848"
     inkscape:window-height="1016"
     inkscape:window-x="72"
     inkscape:window-y="27"
     inkscape:window-maximized="1"
     inkscape:current-layer="svg6" />
  <title
     id="title2">Sass</title>
  <path
     d="M12 0c6.627 0 12 5.373 12 12s-5.373 12-12 12S0 18.627 0 12 5.373 0 12 0zM9.615 15.998c.175.645.156 1.248-.024 1.792l-.065.18c-.024.061-.052.12-.078.176-.14.29-.326.56-.555.81-.698.759-1.672 1.047-2.09.805-.45-.262-.226-1.335.584-2.19.871-.918 2.12-1.509 2.12-1.509v-.003l.108-.061zm9.911-10.861c-.542-2.133-4.077-2.834-7.422-1.645-1.989.707-4.144 1.818-5.693 3.267C4.568 8.48 4.275 9.98 4.396 10.607c.427 2.211 3.457 3.657 4.703 4.73v.006c-.367.18-3.056 1.529-3.686 2.925-.675 1.47.105 2.521.615 2.655 1.575.436 3.195-.36 4.065-1.649.84-1.261.766-2.881.404-3.676.496-.135 1.08-.195 1.83-.104 2.101.24 2.521 1.56 2.43 2.1-.09.539-.523.854-.674.944-.15.091-.195.12-.181.181.015.09.091.09.21.075.165-.03 1.096-.45 1.141-1.471.045-1.29-1.186-2.729-3.375-2.7-.9.016-1.471.091-1.875.256-.03-.045-.061-.075-.105-.105-1.35-1.455-3.855-2.475-3.75-4.41.03-.705.285-2.564 4.8-4.814 3.705-1.846 6.661-1.335 7.171-.21.733 1.604-1.576 4.59-5.431 5.024-1.47.165-2.235-.404-2.431-.615-.209-.225-.239-.24-.314-.194-.12.06-.045.255 0 .375.12.3.585.825 1.396 1.095.704.225 2.43.359 4.5-.45 2.324-.899 4.139-3.405 3.614-5.505l.073.067z"
     id="path4" />
  <path
     style="fill:#ffffff;stroke-width:0.028436"
     d="M 6.5402844,21.011403 C 5.9715908,20.905616 5.8797112,20.871958 5.6888011,20.699482 5.5345695,20.560143 5.3592228,20.279591 5.2712159,20.031352 c -0.062063,-0.17506 -0.077108,-0.275061 -0.087428,-0.581115 -0.011086,-0.328772 -0.00442,-0.400902 0.060292,-0.651999 0.088464,-0.343283 0.2727211,-0.730114 0.4750328,-0.99729 0.5221696,-0.689585 1.6815307,-1.549831 3.0887929,-2.291885 0.160225,-0.08449 0.2913862,-0.162658 0.2914692,-0.173714 C 9.0996762,15.295337 8.6996045,14.995828 7.8947744,14.433538 7.4432983,14.118117 6.9698385,13.781335 6.8426416,13.685134 5.4342003,12.619906 4.7392461,11.779465 4.4589241,10.802389 4.1706879,9.797729 4.8585317,8.3088435 6.2321745,6.9640664 7.2174691,5.9994765 8.3318755,5.231231 9.8388626,4.4777004 11.41756,3.6883126 12.769346,3.2207297 14.033175,3.0268871 c 0.503566,-0.077236 1.622938,-0.1075639 2.098645,-0.056861 1.100442,0.11729 1.998667,0.4558324 2.633219,0.9924644 0.353812,0.2992133 0.682796,0.8253001 0.698345,1.1167406 0.0045,0.084148 0.02403,0.2745602 0.04342,0.4231384 0.148376,1.1369641 -0.454451,2.5553789 -1.552863,3.6537907 -0.516792,0.5167922 -1.009672,0.8689018 -1.674317,1.1961198 -1.346942,0.663127 -3.150495,0.972143 -4.458947,0.763986 -0.643426,-0.10236 -1.191787,-0.379553 -1.58732,-0.802379 -0.2798405,-0.29915 -0.4202434,-0.6705109 -0.2815649,-0.7447292 0.048258,-0.025827 0.088109,-4.834e-4 0.2865209,0.18222 0.278462,0.2564142 0.618879,0.4358262 1.036572,0.5463082 0.417843,0.110522 1.116477,0.126903 1.693461,0.0397 1.749995,-0.264469 3.275474,-1.0425484 4.315037,-2.2009092 0.400393,-0.4461484 0.719435,-0.9824534 0.873438,-1.4682356 0.09092,-0.2868108 0.12591,-0.7729561 0.07367,-1.0236966 C 18.07191,4.8834208 17.297324,4.435447 15.96201,4.3325986 14.519075,4.221461 12.746456,4.6491257 10.933649,5.5457481 8.5587432,6.7203876 7.0284622,7.9733903 6.4243945,9.2379515 6.2028297,9.7017773 6.1603658,9.8953513 6.1584574,10.450237 c -0.00156,0.452941 0.00138,0.477567 0.084939,0.7109 0.2309347,0.644906 0.7148468,1.210178 1.7047086,1.991319 1.1740414,0.926484 1.4457504,1.150103 1.7397751,1.431849 l 0.3164169,0.303204 0.238465,-0.06911 c 0.380838,-0.110363 0.901635,-0.166428 1.572404,-0.169274 0.667304,-0.0028 0.920646,0.03039 1.399722,0.183568 0.984895,0.314901 1.720627,1.029957 1.958585,1.903544 0.07732,0.283845 0.07171,0.756797 -0.01184,0.999031 -0.08706,0.252426 -0.242031,0.485754 -0.450283,0.677982 -0.305078,0.281602 -0.73754,0.457545 -0.789811,0.321326 -0.02102,-0.05476 -0.03059,-0.0451 0.215171,-0.217034 0.250755,-0.175425 0.408589,-0.358274 0.532651,-0.617073 0.0909,-0.189617 0.102273,-0.2385 0.102572,-0.440758 0.0011,-0.749587 -0.605952,-1.463102 -1.506533,-1.770722 -0.752124,-0.25691 -1.752281,-0.320401 -2.530806,-0.160659 -0.125118,0.02567 -0.23166,0.0505 -0.236758,0.05517 -0.0051,0.0047 0.02887,0.128019 0.07548,0.274105 0.04661,0.146087 0.101223,0.367981 0.121354,0.4931 0.05252,0.326408 0.04448,1.019604 -0.01583,1.364929 -0.0585,0.33499 -0.226931,0.865969 -0.356729,1.124609 -0.5291037,1.054311 -1.5313351,1.844112 -2.6728269,2.106302 -0.2341814,0.05379 -0.9450152,0.09536 -1.1090047,0.06485 z m 0.9422997,-1.189837 c 1.160247,-0.245924 2.1717551,-1.479064 2.2596458,-2.75476 0.023182,-0.336485 -0.066519,-1.071545 -0.1307636,-1.071545 -0.010217,0 -0.1455788,0.06809 -0.3008034,0.151305 -1.6645305,0.892376 -2.6701382,2.000205 -2.7340942,3.012017 -0.024528,0.388049 0.072872,0.578984 0.3374553,0.661523 0.1615739,0.0504 0.3355363,0.05085 0.5685601,0.0015 z"
     id="path49" />
</svg>
