<?xml version="1.0" encoding="utf-8"?>
<!-- Generator: Adobe Illustrator 19.2.0, SVG Export Plug-In . SVG Version: 6.00 Build 0)  -->
<svg xmlns="http://www.w3.org/2000/svg" xmlns:xlink="http://www.w3.org/1999/xlink" version="1.1" id="wristwatchsquare" x="0px" y="0px" viewBox="0 0 227.6875 227.6855" enable-background="new 0 0 227.6875 227.6855" xml:space="preserve" width="512" height="512">
<g>
	<path fill="#D0E8FF" d="M151.3203,169.7051l-16.9727,16.9688l2.8281,2.8281c1.5938,1.5859,4.0742,1.5859,5.6523,0.0078   l11.3242-11.3242c1.582-1.582,1.582-4.0664-0.0039-5.6523L151.3203,169.7051z"/>
	<path fill="#D0E8FF" d="M173.9492,152.7324c1.5859,1.5859,4.0703,1.582,5.6484,0.0039l11.3242-11.3242   c1.582-1.582,1.582-4.0664-0.0039-5.6523l-2.8281-2.8281l-3.6899,3.6895l-13.2815,13.2803L173.9492,152.7324z"/>
	<path fill="#5CB0FF" d="M123.0234,28.2695c-3.1133-3.1152-8.1797-3.1074-11.3008,0.0078l-82.0273,82.0293   c-1.5039,1.5039-2.332,3.5098-2.3359,5.6484c-0.0039,2.1406,0.8242,4.1484,2.3281,5.6523l73.5586,73.5625   c1.5117,1.5117,3.5156,2.3438,5.6406,2.3438c0.0039,0,0.0078,0,0.0117,0c2.1289-0.0039,4.1328-0.8398,5.6484-2.3555   l45.2588-45.2568l-0.001-0.001l23.8181-23.8145l12.9553-12.9551c1.5039-1.5039,2.332-3.5098,2.3359-5.6484   c0.0039-2.1406-0.8242-4.1484-2.3281-5.6523L123.0234,28.2695z M159.5508,76.834l-44.3984,44.3945l-40.2891-12.1914   c-2.1133-0.6387-3.3086-2.8711-2.668-4.9863c0.6406-2.1133,2.8711-3.3145,4.9883-2.6699l35.7031,10.8027l41.0078-41.0059   c1.5625-1.5625,4.0938-1.5625,5.6562,0S161.1133,75.2715,159.5508,76.834z"/>
	<path fill="#1C71DA" d="M193.7451,87.6768l33.9424-33.9404l-5.6562-5.6562l-33.9424,33.9404l-42.4255-42.4238l33.9421-33.9404   L173.9492,0l-33.9421,33.9404l-11.3274-11.3271c-6.2305-6.2324-16.375-6.2324-22.6133,0.0078l-82.0273,82.0293   c-3.0117,3.0098-4.6758,7.0215-4.6797,11.2969c-0.0039,4.2773,1.6523,8.2969,4.6719,11.3164l11.3259,11.3262L0,173.9473   l5.6562,5.6562l35.3569-35.3569l42.4248,42.4268l-35.356,35.356l5.6562,5.6562l35.3557-35.3555l8.4958,8.4961   c3.0234,3.0234,7.0352,4.6875,11.2969,4.6875c0.0078,0,0.0156,0,0.0234,0c4.2617-0.0078,8.2734-1.6758,11.293-4.6992l8.4866-8.4863   l2.8298,2.8301c2.3398,2.3398,5.4141,3.5117,8.4883,3.5117c3.0703,0,6.1406-1.168,8.4766-3.5039l11.3242-11.3242   c2.2773-2.2773,3.5273-5.293,3.5195-8.4961c-0.0039-3.1953-1.2539-6.2031-3.5234-8.4688l-2.8311-2.8311l8.4883-8.4883   l2.8311,2.8311c2.3398,2.3398,5.4102,3.5078,8.4844,3.5078c3.0703,0,6.1406-1.168,8.4766-3.5039l11.3242-11.3242   c4.6758-4.6758,4.6758-12.2852-0.0039-16.9648l-2.8284-2.8281l8.4885-8.4883c3.0117-3.0117,4.6758-7.0215,4.6797-11.2949   c0.0039-4.2812-1.6523-8.3008-4.6719-11.3184L193.7451,87.6768z M154.1523,178.1855l-11.3242,11.3242   c-1.5781,1.5781-4.0586,1.5781-5.6523-0.0078l-2.8281-2.8281l16.9727-16.9688l2.8281,2.8281   C155.7344,174.1191,155.7344,176.6035,154.1523,178.1855z M188.0898,132.9316l2.8281,2.8281   c1.5859,1.5859,1.5859,4.0703,0.0039,5.6523l-11.3242,11.3242c-1.5781,1.5781-4.0625,1.582-5.6484-0.0039l-2.8308-2.8311   l13.2815-13.2803L188.0898,132.9316z M196.5781,113.1309l-12.9553,12.9551l-23.8181,23.8145l0.001,0.001l-45.2588,45.2568   c-1.5156,1.5156-3.5195,2.3516-5.6484,2.3555c-0.0039,0-0.0078,0-0.0117,0c-2.125,0-4.1289-0.832-5.6406-2.3438l-73.5586-73.5625   c-1.5039-1.5039-2.332-3.5117-2.3281-5.6523c0.0039-2.1387,0.832-4.1445,2.3359-5.6484l82.0273-82.0293   c3.1211-3.1152,8.1875-3.123,11.3008-0.0078l73.5625,73.5605c1.5039,1.5039,2.332,3.5117,2.3281,5.6523   C198.9102,109.6211,198.082,111.627,196.5781,113.1309z"/>
	<path fill="#1C71DA" d="M153.8945,71.1777l-41.0078,41.0059l-35.7031-10.8027c-2.1172-0.6445-4.3477,0.5566-4.9883,2.6699   c-0.6406,2.1152,0.5547,4.3477,2.668,4.9863l40.2891,12.1914l44.3984-44.3945c1.5625-1.5625,1.5625-4.0938,0-5.6562   S155.457,69.6152,153.8945,71.1777z"/>
	<path fill="#1C71DA" d="M171.1211,42.4238c-1.5625,1.5625-1.5625,4.0938,0,5.6562l11.3125,11.3125   c0.7812,0.7812,1.8047,1.1719,2.8281,1.1719s2.0469-0.3906,2.8281-1.1719c1.5625-1.5625,1.5625-4.0938,0-5.6562l-11.3125-11.3125   C175.2148,40.8613,172.6836,40.8613,171.1211,42.4238z"/>
	<path fill="#1C71DA" d="M52.3242,195.1582c1.5625-1.5625,1.5625-4.0938,0-5.6562l-11.3125-11.3125   c-1.5625-1.5625-4.0938-1.5625-5.6562,0s-1.5625,4.0938,0,5.6562l11.3125,11.3125c0.7812,0.7812,1.8047,1.1719,2.8281,1.1719   S51.543,195.9395,52.3242,195.1582z"/>
	<path fill="#1C71DA" d="M193.7461,48.0801c0.7812,0.7812,1.8047,1.1719,2.8281,1.1719s2.0469-0.3906,2.8281-1.1719   c1.5625-1.5625,1.5625-4.0938,0-5.6562l-11.3125-11.3125c-1.5625-1.5625-4.0938-1.5625-5.6562,0s-1.5625,4.0938,0,5.6562   L193.7461,48.0801z"/>
	<path fill="#1C71DA" d="M63.6406,182.1895c1.0234,0,2.0469-0.3906,2.8281-1.1719c1.5625-1.5625,1.5625-4.0938,0-5.6562   l-11.3164-11.3125c-1.5625-1.5625-4.0938-1.5625-5.6562,0s-1.5625,4.0938,0,5.6562l11.3164,11.3125   C61.5938,181.7988,62.6172,182.1895,63.6406,182.1895z"/>
</g>
<path fill="#FF5D5D" d="M37.6309,42.6147c-1.0234,0-2.0469-0.3906-2.8281-1.1714c-1.5625-1.5625-1.5625-4.0952,0-5.6572  L48.9453,21.644c1.5605-1.5615,4.0938-1.5615,5.6562,0c1.5625,1.5625,1.5625,4.0952,0,5.6572L40.459,41.4434  C39.6787,42.2241,38.6543,42.6147,37.6309,42.6147z"/>
<path fill="#FF5D5D" d="M51.7734,42.6133c-1.0234,0-2.0479-0.3906-2.8281-1.1714L34.8027,27.2993  c-1.5625-1.5625-1.5625-4.0947,0-5.6572c1.5605-1.5615,4.0957-1.5615,5.6562,0l14.1426,14.1426  c1.5625,1.5625,1.5625,4.0947,0,5.6572C53.8213,42.2227,52.7969,42.6133,51.7734,42.6133z"/>
<path fill="#00D40B" d="M207.6309,198.6152c-7.7197,0-14-6.2803-14-14s6.2803-14,14-14s14,6.2803,14,14  S215.3506,198.6152,207.6309,198.6152z M207.6309,178.6152c-3.3086,0-6,2.6914-6,6s2.6914,6,6,6s6-2.6914,6-6  S210.9395,178.6152,207.6309,178.6152z"/>
<path fill="#FFC504" d="M104.9453,177.2402c-1.0234,0-2.0469-0.3906-2.8281-1.1719l-11.3145-11.3135  c-0.75-0.75-1.1719-1.7676-1.1719-2.8281s0.4219-2.0781,1.1719-2.8281l11.3145-11.3135c1.5625-1.5625,4.0938-1.5625,5.6562,0  l11.3135,11.3135c1.5625,1.5615,1.5625,4.0947,0,5.6562l-11.3135,11.3135C106.9932,176.8496,105.9688,177.2402,104.9453,177.2402z   M99.2881,161.9268l5.6572,5.6572l5.6562-5.6572l-5.6562-5.6572L99.2881,161.9268z"/>
</svg>
